<svg width="56" height="32" viewBox="0 0 56 32" fill="none" xmlns="http://www.w3.org/2000/svg">
<rect width="56" height="32" rx="6" fill="white"/>
<path d="M34.482 9C35.7981 9 36.8625 9.30277 37.5336 9.57698L37.0709 12.5034L36.7632 12.3595C36.1475 12.0855 35.3348 11.8117 34.2288 11.8406C32.8855 11.8406 32.2831 12.4314 32.2691 13.0082C32.2691 13.6427 32.9979 14.0608 34.1878 14.6809C36.1481 15.6468 37.0573 16.829 37.0437 18.3717C37.0162 21.1832 34.692 23 31.1221 23C29.5958 22.9854 28.1256 22.6532 27.3276 22.2787L27.8037 19.2365L28.2517 19.4531C29.3578 19.9582 30.0856 20.1739 31.444 20.1739C32.4235 20.1739 33.4738 19.7554 33.4872 18.8475C33.4872 18.2564 33.0397 17.8235 31.7234 17.1603C30.4356 16.5113 28.7137 15.4301 28.7416 13.4836C28.7561 10.8453 31.1221 9 34.482 9Z" fill="#00579F"/>
<path d="M21.7977 22.798H25.2L27.3278 9.24567H23.9257L21.7977 22.798Z" fill="#00579F"/>
<path fill-rule="evenodd" clip-rule="evenodd" d="M46.2552 9.24567H43.6235C42.812 9.24567 42.1954 9.49056 41.8452 10.3701L36.7916 22.7978H40.3615C40.3615 22.7978 40.9492 21.1252 41.0756 20.7649H45.4438C45.5415 21.2407 45.8498 22.7978 45.8498 22.7978H49L46.2552 9.24567ZM42.0555 17.9969C42.3357 17.2183 43.4138 14.2051 43.4138 14.2051C43.4081 14.2168 43.4526 14.0896 43.5188 13.9007C43.6165 13.6219 43.7613 13.2083 43.8615 12.9076L44.0992 14.0753C44.0992 14.0753 44.7435 17.3193 44.8834 17.9969H42.0555Z" fill="#00579F"/>
<path d="M15.6239 18.4871L18.9559 9.24567H22.5535L17.2057 22.7837H13.6079L10.5559 10.9321C12.7119 12.1005 14.6438 14.4502 15.2598 16.6128L15.6239 18.4871Z" fill="#00579F"/>
<path d="M12.53 9.24567H7.056L7 9.5195C11.27 10.6441 14.098 13.355 15.2599 16.6134L14.0699 10.3849C13.874 9.5193 13.2719 9.27422 12.53 9.24567Z" fill="#FAA61A"/>
</svg>
